<svg width="217" height="183" viewBox="0 0 217 183" fill="none" xmlns="http://www.w3.org/2000/svg">
<g filter="url(#filter0_d_948_4784)">
<path d="M105.54 77.3047L105.54 139.305C98.3667 139.305 94.4305 132.098 92.8209 128.419C63.5744 138.352 48.9052 123.361 45.2264 114.624C8.25442 117.935 0.350511 90.8707 1.04029 77.3047C17.1351 76.8448 52.6096 77.9972 50.5403 77.3047C49.0776 76.8152 39.0183 55.3053 58.3321 55.3047C73.8224 55.3042 70.3686 71.0994 65.5403 77.3047H105.54Z" fill="#F18910" stroke="#F18910"/>
<path d="M164.222 77.3609H199.709C200.812 96.1222 190.204 106.332 184.915 109.091C185.467 130.612 169.97 138.752 162.153 140.131H147.667V169.102C139.39 150.34 117.967 141.971 108.54 140.131V77.3609C119.347 77.5909 139.643 77.157 139.39 77.3609C137.116 79.1981 131.113 99.4338 151.806 99.4338C169.04 99.4338 166.981 84.7185 164.222 77.3609Z" fill="#E4C210" stroke="#E4C210"/>
<path d="M108.54 31.8028V4.30458C128.957 2.0973 141.565 12.4328 144.554 17.7211C176.008 15.5138 183.411 38.4144 183.181 50.1406C194.77 56.2106 199.08 68.8248 199.54 74.8028L159.54 74.803C168.921 94.1167 157.978 97.0346 151.54 96.8047C134.296 95.4252 139.712 81.2408 144.54 74.8028H108.54V57.8028C125.54 65.8046 131.54 50.8046 131.54 44.8046C130.04 28.8046 116.54 28.3046 108.54 31.8028Z" fill="#6BAC5B" stroke="#6BAC5B"/>
<path d="M94.2373 9.44367C96.4446 6.68456 102.515 5.07508 105.274 4.61523V37.7245C121.139 26.6881 129.33 39.104 128.036 46.0018C125.062 61.8666 109.412 57.0382 105.274 50.8302V74.9724H70.0406C77.0406 59.1075 68.1067 52.3047 57.5406 52.3047C40.4021 52.3047 42.0406 69.3047 45.5406 74.9724H1.11756C0.565744 68.9023 6.40585 61.8666 9.39487 59.1075C12.154 29.861 37.6757 21.1699 50.0916 20.4801C77.6827 -8.49051 91.4782 12.8925 94.2373 9.44367Z" fill="#F94646" stroke="#F94646"/>
</g>
<defs>
<filter id="filter0_d_948_4784" x="0.5" y="0.5" width="215.789" height="181.804" filterUnits="userSpaceOnUse" color-interpolation-filters="sRGB">
<feFlood flood-opacity="0" result="BackgroundImageFix"/>
<feColorMatrix in="SourceAlpha" type="matrix" values="0 0 0 0 0 0 0 0 0 0 0 0 0 0 0 0 0 0 127 0" result="hardAlpha"/>
<feOffset dx="8" dy="5"/>
<feGaussianBlur stdDeviation="4"/>
<feComposite in2="hardAlpha" operator="out"/>
<feColorMatrix type="matrix" values="0 0 0 0 0 0 0 0 0 0 0 0 0 0 0 0 0 0 0.25 0"/>
<feBlend mode="normal" in2="BackgroundImageFix" result="effect1_dropShadow_948_4784"/>
<feBlend mode="normal" in="SourceGraphic" in2="effect1_dropShadow_948_4784" result="shape"/>
</filter>
</defs>
</svg>
